<?xml version="1.0" encoding="UTF-8" standalone="no"?>
<!-- Created with Inkscape (http://www.inkscape.org/) -->

<svg
   width="6.3499999mm"
   height="6.3499999mm"
   viewBox="0 0 6.3499999 6.3499999"
   version="1.1"
   id="svg5"
   xml:space="preserve"
   inkscape:version="1.2.1 (9c6d41e410, 2022-07-14)"
   sodipodi:docname="dislike.svg"
   xmlns:inkscape="http://www.inkscape.org/namespaces/inkscape"
   xmlns:sodipodi="http://sodipodi.sourceforge.net/DTD/sodipodi-0.dtd"
   xmlns="http://www.w3.org/2000/svg"
   xmlns:svg="http://www.w3.org/2000/svg"><sodipodi:namedview
     id="namedview7"
     pagecolor="#ffffff"
     bordercolor="#000000"
     borderopacity="0.25"
     inkscape:showpageshadow="2"
     inkscape:pageopacity="0.0"
     inkscape:pagecheckerboard="0"
     inkscape:deskcolor="#d1d1d1"
     inkscape:document-units="mm"
     showgrid="false"
     inkscape:zoom="2.8649832"
     inkscape:cx="220.42014"
     inkscape:cy="-57.068398"
     inkscape:window-width="1920"
     inkscape:window-height="991"
     inkscape:window-x="-9"
     inkscape:window-y="-9"
     inkscape:window-maximized="1"
     inkscape:current-layer="layer1" /><defs
     id="defs2" /><g
     inkscape:label="Слой 1"
     inkscape:groupmode="layer"
     id="layer1"><g
       id="g1055"
       transform="matrix(0.26458333,0,0,-0.26458333,0,6.3499999)"
       style="fill:none;fill-rule:evenodd;stroke:none;stroke-width:1"><path
         d="M 0,0 H 24 V 24 H 0 Z M 0,0 H 24 V 24 H 0 Z"
         id="Shape" /><path
         d="M 13.12,2.06 7.58,7.6 C 7.21,7.97 7,8.48 7,9.01 V 19 c 0,1.1 0.9,2 2,2 h 9 c 0.8,0 1.52,-0.48 1.84,-1.21 L 23.1,12.18 C 23.94,10.2 22.49,8 20.34,8 H 14.69 L 15.64,3.42 C 15.74,2.92 15.59,2.41 15.23,2.05 14.64,1.47 13.7,1.47 13.12,2.06 Z M 3,21 c 1.1,0 2,-0.9 2,-2 V 11 C 5,9.9 4.1,9 3,9 1.9,9 1,9.9 1,11 v 8 c 0,1.1 0.9,2 2,2 z"
         id="🔹Icon-Color"
         fill="#1d1d1d" /></g></g></svg>
